<svg width="80" height="83" viewBox="0 0 80 83" fill="black" xmlns="http://www.w3.org/2000/svg">
  <path d="M74.4837 -7.42078e-06C64.3288 1.18036 60.1522 6.95952 57.0321 13.5515C70.1763 13.9189 76.1223 9.48761 74.4837 -7.42078e-06ZM3.51744 0.290735C1.87916 9.77835 7.82496 14.2045 20.9694 13.837C17.8489 7.24517 13.6723 1.47146 3.51744 0.290735ZM76.0987 27.3006C75.3394 27.3357 74.4496 27.7348 73.4234 28.5644C71.9762 29.7346 70.4411 30.8169 68.8313 31.8108C73.8769 37.5694 76.8885 44.8283 78.774 52.6298C80.639 40.4112 80.7251 27.0874 76.0986 27.3008L76.0987 27.3006ZM4.49004 28.2952C0.012893 28.2487 -0.879549 41.7596 0.771037 54.0747C3.30686 46.6559 6.90229 39.4766 11.7078 33.0414C10.0727 32.0078 8.53494 30.8591 7.12114 29.5917C6.13535 28.7075 5.25961 28.3031 4.49004 28.2952ZM64.5355 34.1675C61.8025 35.5004 58.9214 36.6101 55.9442 37.4908C60.852 49.9839 63.0431 63.1285 64.4147 76.2119C68.0559 62.2777 67.5909 48.1546 64.5355 34.1675ZM16.2616 35.5078C13.2921 47.0034 11.2079 58.1108 12.5923 69.6312C14.9242 58.4536 18.4381 47.8364 24.2213 38.3034C21.4405 37.5938 18.7709 36.6641 16.2616 35.5076V35.5078ZM68.3807 36.5788C70.909 49.8234 71.1176 63.3073 67.7106 76.6459C70.6397 74.8731 72.9132 72.6824 74.242 70.043C75.2416 68.0577 76.2288 64.9568 77.0984 61.3199C75.6851 52.0664 73.175 43.3417 68.3811 36.5787L68.3807 36.5788ZM12.2902 37.9246C7.53246 45.0712 4.17785 53.0638 2.05617 61.2044C2.89852 64.8049 3.98063 67.9815 5.26981 70.2462C6.31887 72.0889 8.00285 73.7437 10.1643 75.1955C7.4959 62.3118 9.31383 50.1256 12.2902 37.9246ZM51.5773 38.6056C48.1512 39.3459 44.6691 39.7979 41.1675 39.9568C45.1266 51.6633 47.1743 63.6223 48.8801 75.5692C50.6994 63.1267 51.305 50.8611 51.5773 38.6059V38.6056ZM28.9454 39.2868C27.1215 52.1328 26.7313 66.4319 30.088 78.2662C31.315 65.6223 33.7105 51.994 37.2564 40.0117C34.4456 39.9625 31.6616 39.7239 28.9454 39.2866V39.2868ZM25.1331 43.3403C19.5907 53.6456 16.4539 65.2345 14.4491 77.5464C18.198 79.2427 22.7096 80.525 27.5666 81.3588C23.704 69.7421 23.6801 56.0282 25.1331 43.3403ZM54.6974 43.7305C54.3173 56.2662 53.5008 68.9147 51.2146 81.8364C54.8638 81.3452 58.3346 80.5713 61.4539 79.502C60.2814 67.353 58.5131 55.2447 54.6976 43.7305H54.6974ZM39.2946 44.9118C36.1199 56.7868 34.0053 70.0495 33.0322 82.0895C37.478 82.5284 42.0652 82.6116 46.5123 82.3092C44.7773 69.6521 42.9636 57.0913 39.2947 44.9118H39.2946Z" fill="inherit" />
</svg>